{"glyphs":{"0":{"ha":860,"x_min":0,"x_max":0,"o":"m 431 0 b 846 486 660 0 846 218 b 431 972 846 754 660 972 b 14 486 200 972 14 754 b 431 0 14 218 200 0 z m 83 486 b 431 965 83 751 239 965 b 776 486 621 965 776 751 b 431 7 776 221 621 7 b 83 486 239 7 83 221 z m 258 483 b 426 315 428 483 426 485 l 433 315 b 601 483 433 485 432 483 l 601 490 b 433 658 432 492 433 489 l 426 658 b 258 490 426 489 428 490 z "},"1":{"ha":306,"x_min":0,"x_max":0,"o":"m 53 4 l 53 0 l 292 0 l 292 4 b 207 64 249 4 207 21 l 207 972 l 197 972 l 14 788 l 18 783 l 138 903 l 138 64 b 53 4 138 21 96 4 z "},"2":{"ha":714,"x_min":0,"x_max":0,"o":"m 42 571 b 293 944 42 738 81 901 b 508 660 500 988 692 904 l 17 6 l 21 0 l 346 0 b 665 354 663 0 632 58 l 661 354 b 346 7 632 131 563 7 l 28 7 l 644 831 b 293 954 647 904 599 1015 b 14 756 174 931 42 851 l 38 571 z "},"3":{"ha":781,"x_min":0,"x_max":0,"o":"m 321 7 b 72 143 208 7 103 49 b 124 432 42 236 67 349 l 117 436 b 29 121 56 346 -19 218 b 321 0 83 13 183 0 b 767 296 586 0 767 119 b 419 539 767 524 540 610 l 682 797 b 342 965 676 936 581 1015 b 46 758 194 933 107 882 l 67 572 l 74 574 b 344 957 63 835 193 924 b 519 649 601 1011 703 832 l 321 451 l 326 446 l 396 514 b 701 296 492 610 704 465 b 321 7 700 185 606 7 z "},"4":{"ha":813,"x_min":0,"x_max":0,"o":"m 485 4 l 485 0 l 724 0 l 724 4 b 639 64 681 4 639 21 l 639 228 l 799 228 l 799 407 l 794 407 b 683 235 794 303 793 235 l 639 235 l 639 972 l 629 972 l 14 235 l 14 228 l 569 228 l 569 64 b 485 4 569 21 528 4 z m 25 235 l 569 889 l 569 235 z "},"5":{"ha":764,"x_min":0,"x_max":0,"o":"m 649 972 l 50 972 l 50 968 b 129 917 86 968 133 960 l 103 593 l 163 510 b 681 296 300 651 706 657 b 332 7 672 185 617 7 b 75 157 219 7 106 63 b 108 432 44 250 51 349 l 103 436 b 32 135 42 346 -17 232 b 332 0 86 26 194 0 b 750 296 597 0 742 119 b 165 524 772 732 257 649 l 206 965 l 428 965 b 690 789 578 965 635 939 l 697 790 z "},"6":{"ha":763,"x_min":0,"x_max":0,"o":"m 382 1 b 749 333 606 1 743 138 b 90 338 761 751 150 747 b 85 446 86 372 85 408 b 432 965 85 682 147 965 b 586 671 656 965 736 814 l 590 667 l 725 786 b 440 974 719 935 578 974 b 14 446 115 974 14 724 b 382 1 14 268 94 1 z m 94 313 b 675 314 188 735 681 665 b 382 8 672 110 560 8 b 94 313 208 8 121 133 z "},"7":{"ha":815,"x_min":0,"x_max":0,"o":"m 801 968 l 801 972 l 110 972 l 61 790 l 65 790 b 331 965 121 940 181 965 l 626 965 l 363 483 l 135 483 l 135 476 l 360 476 l 143 82 b 14 4 115 29 54 4 l 14 0 l 269 0 l 269 4 b 226 75 229 4 206 39 l 446 476 l 669 476 l 669 483 l 449 483 l 672 890 b 801 968 700 943 761 968 z "},"8":{"ha":733,"x_min":0,"x_max":0,"o":"m 367 0 b 719 269 561 0 719 117 b 422 528 719 408 590 510 b 682 750 568 549 682 646 b 367 972 682 865 538 972 b 51 750 196 972 51 865 b 311 528 51 646 165 549 b 14 269 143 510 14 408 b 367 0 14 117 172 0 z m 83 269 b 367 524 83 419 204 524 b 650 269 529 524 650 419 b 367 8 650 119 529 8 b 83 269 204 8 83 119 z m 121 750 b 367 965 121 863 224 965 b 613 750 510 965 613 863 b 367 531 613 635 510 531 b 121 750 224 531 121 635 z "},"9":{"ha":765,"x_min":0,"x_max":0,"o":"m 381 974 b 14 642 157 974 19 838 b 672 638 1 224 613 228 b 678 529 676 603 678 567 b 331 10 678 293 615 10 b 176 304 107 10 26 161 l 172 308 l 38 189 b 322 1 43 40 185 1 b 749 529 647 1 749 251 b 381 974 749 707 668 974 z m 88 661 b 381 967 90 865 203 967 b 669 663 554 967 642 842 b 88 661 575 240 82 310 z "}," ":{"ha":417,"x_min":0,"x_max":0,"o":""},"A":{"ha":983,"x_min":0,"x_max":0,"o":"m 718 7 l 718 0 l 969 0 l 969 7 b 858 72 928 7 872 33 l 533 972 l 467 931 l 108 61 b 14 7 92 24 56 7 l 14 0 l 176 0 l 176 7 b 121 69 133 7 107 32 l 267 424 l 650 424 l 776 72 b 718 7 790 36 758 7 z m 269 431 l 471 919 l 647 431 z "},"Æ":{"ha":1215,"x_min":0,"x_max":0,"o":"m 492 7 l 492 0 l 951 0 b 1257 354 1268 0 1224 58 l 1253 354 b 951 7 1224 131 1168 7 l 646 7 l 646 465 l 933 465 l 933 472 l 646 472 l 646 965 l 933 965 b 1196 789 1083 965 1140 939 l 1203 790 l 1154 972 l 576 972 l 117 65 b 14 7 99 31 56 7 l 14 0 l 176 0 l 176 7 b 122 61 135 7 106 26 l 328 465 l 576 465 l 576 64 b 492 7 576 21 535 7 z m 331 472 l 546 894 b 576 888 554 913 576 907 l 576 472 z "},"B":{"ha":869,"x_min":0,"x_max":0,"o":"m 14 7 l 14 0 l 451 0 b 911 296 717 0 911 108 b 521 504 911 554 650 603 l 813 793 b 456 957 807 932 713 1011 b 99 539 253 914 99 746 l 99 64 b 14 7 99 21 57 7 z m 168 7 l 168 151 l 476 460 b 842 296 621 604 842 499 b 451 7 842 174 736 7 z m 168 160 l 168 539 b 458 950 168 788 315 919 b 650 644 718 1006 849 843 z "},"C":{"ha":1142,"x_min":0,"x_max":0,"o":"m 578 972 b 1093 436 814 972 1126 908 l 1100 436 b 1072 842 1129 721 1126 782 b 578 981 1000 921 839 981 b -42 472 181 981 -42 710 b 578 -8 -42 175 238 -8 b 1136 232 740 -8 975 1 l 1183 532 l 1176 533 b 578 0 1092 58 724 0 b 28 472 288 0 28 189 b 578 972 28 688 235 972 z "},"D":{"ha":897,"x_min":0,"x_max":0,"o":"m 14 7 l 14 0 l 353 0 b 939 499 582 0 939 65 b 353 972 939 783 764 972 l 14 972 l 14 965 b 99 908 57 965 99 951 l 99 64 b 14 7 99 21 57 7 z m 168 7 l 168 965 l 353 965 b 867 499 747 965 867 743 b 353 7 867 54 503 7 z "},"E":{"ha":738,"x_min":0,"x_max":0,"o":"m 14 7 l 14 0 l 474 0 b 779 354 790 0 746 58 l 772 356 b 474 7 743 132 690 7 l 168 7 l 168 476 l 549 476 l 549 483 l 168 483 l 168 965 l 456 965 b 718 788 606 965 663 938 l 725 790 l 676 972 l 14 972 l 14 965 b 99 908 57 965 99 953 l 99 483 l 14 483 l 14 476 l 99 476 l 99 64 b 14 7 99 21 57 7 z "},"F":{"ha":586,"x_min":0,"x_max":0,"o":"m 14 7 l 14 0 l 253 0 l 253 7 b 168 64 210 7 168 21 l 168 476 l 549 476 l 549 483 l 168 483 l 168 965 l 456 965 b 718 788 606 965 663 938 l 725 790 l 676 972 l 14 972 l 14 965 b 99 908 57 965 99 951 l 99 483 l 14 483 l 14 476 l 99 476 l 99 64 b 14 7 99 21 57 7 z "},"G":{"ha":1139,"x_min":0,"x_max":0,"o":"m 578 972 b 1100 463 861 972 1113 881 l 1107 463 b 1060 847 1133 722 1124 778 b 578 981 988 926 858 981 b -42 486 210 981 -42 739 b 578 -7 -42 197 231 -7 b 1131 282 961 -7 1088 150 l 1097 0 l 1104 0 l 1144 332 b 1153 406 1150 360 1151 385 l 344 406 l 344 399 l 1108 399 b 578 0 1065 76 769 0 b 28 486 275 0 28 200 b 578 972 28 740 297 972 z "},"H":{"ha":917,"x_min":0,"x_max":0,"o":"m 42 7 l 42 0 l 281 0 l 281 7 b 196 64 238 7 196 21 l 196 476 l 721 476 l 721 64 b 636 7 721 21 679 7 l 636 0 l 875 0 l 875 7 b 790 64 832 7 790 21 l 790 476 l 903 476 l 903 483 l 790 483 l 790 908 b 875 965 790 951 832 965 l 875 972 l 636 972 l 636 965 b 721 908 679 965 721 951 l 721 483 l 196 483 l 196 908 b 281 965 196 951 238 965 l 281 972 l 42 972 l 42 965 b 126 908 85 965 126 951 l 126 483 l 14 483 l 14 476 l 126 476 l 126 64 b 42 7 126 21 85 7 z "},"I":{"ha":267,"x_min":0,"x_max":0,"o":"m 14 7 l 14 0 l 253 0 l 253 7 b 168 64 210 7 168 21 l 168 908 b 253 965 168 951 210 965 l 253 972 l 14 972 l 14 965 b 99 908 57 965 99 951 l 99 64 b 14 7 99 21 57 7 z "},"J":{"ha":783,"x_min":0,"x_max":0,"o":"m 615 908 l 615 488 b 242 0 615 189 449 0 b 207 363 119 0 -68 93 l 201 368 l 14 182 b 242 -7 14 122 49 -7 b 685 488 547 -7 685 206 l 685 908 b 769 965 685 951 726 965 l 769 972 l 531 972 l 531 965 b 615 908 574 965 615 951 z "},"K":{"ha":976,"x_min":0,"x_max":0,"o":"m 14 7 l 14 0 l 254 0 l 254 7 b 168 64 211 7 168 21 l 168 149 l 422 399 b 963 0 413 194 681 0 l 963 7 b 572 544 785 7 361 318 l 761 729 l 761 908 b 847 965 761 951 804 965 l 847 972 l 607 972 l 607 965 b 692 908 650 965 692 951 l 692 763 b 628 610 692 700 667 647 l 168 158 l 168 908 b 254 965 168 951 211 965 l 254 972 l 14 972 l 14 965 b 99 908 57 965 99 951 l 99 64 b 14 7 99 21 57 7 z "},"L":{"ha":699,"x_min":0,"x_max":0,"o":"m 14 7 l 14 0 l 435 0 b 740 354 751 0 707 58 l 733 354 b 435 7 704 131 651 7 l 168 7 l 168 908 b 253 965 168 951 210 965 l 253 972 l 14 972 l 14 965 b 99 908 57 965 99 951 l 99 64 b 14 7 99 21 57 7 z "},"M":{"ha":1303,"x_min":0,"x_max":0,"o":"m 14 7 l 14 0 l 254 0 l 254 7 b 168 64 211 7 168 21 l 168 633 b 393 972 168 838 254 972 b 617 633 540 972 617 840 l 617 64 b 532 7 617 21 575 7 l 532 0 l 771 0 l 771 7 b 686 64 728 7 686 22 l 686 633 b 913 972 686 851 763 972 b 1135 633 1076 972 1135 840 l 1135 64 b 1050 7 1135 21 1093 7 l 1050 0 l 1289 0 l 1289 7 b 1204 64 1246 7 1204 22 l 1204 633 b 913 979 1204 815 1121 979 b 650 825 779 979 692 919 b 393 979 606 917 522 979 b 168 868 296 979 219 935 l 168 908 b 253 965 168 951 210 965 l 253 972 l 14 972 l 14 965 b 99 908 57 965 99 951 l 99 64 b 14 7 99 21 57 7 z "},"N":{"ha":861,"x_min":0,"x_max":0,"o":"m 14 7 l 14 0 l 253 0 l 253 7 b 168 64 210 7 168 21 l 168 869 l 756 0 l 763 0 l 763 908 b 847 965 763 951 804 965 l 847 972 l 608 972 l 608 965 b 693 908 651 965 693 951 l 693 103 l 107 972 l 99 972 l 99 64 b 14 7 99 21 57 7 z "},"O":{"ha":1154,"x_min":0,"x_max":0,"o":"m 578 -7 b 1196 486 918 -7 1196 218 b 578 979 1196 754 918 979 b -42 486 236 979 -42 754 b 578 -7 -42 218 236 -7 z m 28 486 b 578 972 28 749 275 972 b 1126 486 878 972 1126 749 b 578 0 1126 224 879 0 b 28 486 275 0 28 224 z "},"Œ":{"ha":1301,"x_min":0,"x_max":0,"o":"m 578 0 l 1038 0 b 1343 354 1354 0 1310 58 l 1336 354 b 1038 7 1307 131 1254 7 l 732 7 l 732 476 l 1113 476 l 1113 483 l 732 483 l 732 965 l 1019 965 b 1282 788 1169 965 1226 938 l 1289 790 l 1240 972 l 578 972 b -42 486 236 972 -42 754 b 578 0 -42 218 236 0 z m 28 486 b 578 965 28 749 275 965 b 663 908 621 965 663 953 l 663 483 l 578 483 l 578 476 l 663 476 l 663 64 b 578 7 663 21 621 7 b 28 486 275 7 28 224 z "},"P":{"ha":757,"x_min":0,"x_max":0,"o":"m 14 7 l 14 0 l 253 0 l 253 7 b 168 64 210 7 168 21 l 168 651 l 349 468 b 738 624 479 336 708 442 b 314 972 769 818 654 972 l 14 972 l 14 965 b 99 908 57 965 99 951 l 99 64 b 14 7 99 21 57 7 z m 168 664 l 168 965 l 314 965 b 667 626 556 965 708 875 b 354 474 639 463 446 379 z "},"Q":{"ha":1154,"x_min":0,"x_max":0,"o":"m 578 -7 b 1196 486 918 -7 1196 218 b 578 979 1196 754 918 979 b -42 486 236 979 -42 754 b 531 -6 -42 231 211 14 l 399 -139 l 394 -143 l 400 -149 l 401 -147 b 1038 -111 553 6 899 -282 l 1033 -107 b 454 -94 910 -251 679 50 l 540 -6 z m 28 486 b 578 972 28 749 275 972 b 1126 486 879 972 1126 749 b 578 0 1126 224 879 0 l 547 1 l 932 393 l 926 397 l 536 1 b 28 486 253 21 28 236 z "},"R":{"ha":976,"x_min":0,"x_max":0,"o":"m 14 7 l 14 0 l 254 0 l 254 7 b 168 64 211 7 168 21 l 168 151 l 424 408 b 963 0 517 239 739 0 l 963 7 b 494 479 789 7 560 293 l 813 797 b 456 961 807 936 713 1015 b 168 771 335 936 232 867 l 168 908 b 254 965 168 951 211 965 l 254 972 l 14 972 l 14 965 b 99 908 57 965 99 951 l 99 64 b 14 7 99 21 57 7 z m 168 164 l 168 543 b 458 954 168 792 315 924 b 650 649 718 1010 849 847 z "},"S":{"ha":644,"x_min":0,"x_max":0,"o":"m 40 758 b 324 972 40 869 147 974 b 528 632 528 971 713 846 l 533 628 l 672 749 b 324 981 689 894 508 979 b -29 758 72 982 -29 860 b 321 513 -29 624 150 568 b 617 250 472 463 617 406 b 324 0 617 121 517 0 b 104 343 117 0 -87 121 l 99 347 l -40 226 b 324 -7 -57 72 133 -6 b 686 250 561 -8 686 125 b 325 522 686 403 499 465 b 40 758 176 571 40 633 z "},"T":{"ha":611,"x_min":0,"x_max":0,"o":"m 360 7 l 360 0 l 599 0 l 599 7 b 514 64 556 7 514 21 l 514 965 l 675 965 b 938 789 825 965 882 939 l 944 790 l 896 972 l 63 972 l 14 790 l 21 789 b 283 965 76 939 133 965 l 444 965 l 444 64 b 360 7 444 21 403 7 z "},"U":{"ha":1024,"x_min":0,"x_max":0,"o":"m 99 908 l 99 458 b 511 -7 99 203 213 -7 b 925 458 811 -7 925 203 l 925 908 b 1010 965 925 951 967 965 l 1010 972 l 771 972 l 771 965 b 856 908 814 965 856 951 l 856 458 b 511 0 856 228 782 0 b 168 458 238 0 168 228 l 168 908 b 253 965 168 951 210 965 l 253 972 l 14 972 l 14 965 b 99 908 57 965 99 951 z "},"V":{"ha":940,"x_min":0,"x_max":0,"o":"m 265 965 l 265 972 l 14 972 l 14 965 b 125 900 56 965 111 939 l 450 0 l 457 0 l 833 917 b 926 965 849 950 888 965 l 926 972 l 764 972 l 764 965 b 824 911 806 965 838 946 l 493 104 l 207 899 b 265 965 194 935 224 965 z "},"W":{"ha":1439,"x_min":0,"x_max":0,"o":"m 265 965 l 265 972 l 14 972 l 14 965 b 125 900 56 965 111 939 l 450 0 l 457 0 l 718 636 l 949 0 l 956 0 l 1332 917 b 1425 965 1347 950 1386 965 l 1425 972 l 1263 972 l 1263 965 b 1322 911 1304 965 1336 946 l 992 104 l 763 742 l 833 917 b 926 965 849 950 888 965 l 926 972 l 513 972 l 513 965 b 624 900 554 965 610 939 l 715 646 l 493 104 l 207 899 b 265 965 194 935 224 965 z m 706 899 b 764 965 693 935 722 965 b 824 911 806 965 838 946 l 758 751 z "},"X":{"ha":976,"x_min":0,"x_max":0,"o":"m 269 965 l 269 972 l 14 972 l 14 965 b 161 885 53 965 128 932 l 446 486 l 161 88 b 14 7 128 40 53 7 l 14 0 l 193 0 l 193 7 b 164 79 151 7 132 32 l 450 479 l 736 79 b 707 7 768 32 749 7 l 707 0 l 963 0 l 963 7 b 815 88 924 7 849 40 l 493 540 l 739 885 b 886 965 772 932 847 965 l 886 972 l 707 972 l 707 965 b 736 893 749 965 768 940 l 489 546 l 240 893 b 269 965 208 940 228 965 z "},"Y":{"ha":942,"x_min":0,"x_max":0,"o":"m 269 965 l 269 972 l 14 972 l 14 965 b 161 885 53 965 128 932 l 444 488 l 444 64 b 360 7 444 21 403 7 l 360 0 l 599 0 l 599 7 b 514 64 556 7 514 21 l 514 511 l 781 885 b 928 965 814 932 889 965 l 928 972 l 749 972 l 749 965 b 778 894 789 965 810 940 l 510 518 l 240 894 b 269 965 207 940 229 965 z "},"Z":{"ha":964,"x_min":0,"x_max":0,"o":"m 136 972 l 56 724 l 63 721 b 333 965 149 932 206 965 l 776 965 l 147 69 b 14 7 106 10 53 7 l 14 0 l 551 0 b 831 115 631 0 785 22 b 901 469 872 200 888 347 l 894 469 b 551 7 865 246 768 7 l 188 7 l 817 903 b 950 965 858 963 911 965 l 950 972 z "},"a":{"ha":875,"x_min":0,"x_max":0,"o":"m 372 -7 b 707 158 528 -7 643 63 l 707 64 b 622 7 707 21 665 7 l 622 0 l 861 0 l 861 7 b 776 64 818 7 776 21 l 776 631 b 861 688 776 674 818 688 l 861 694 l 622 694 l 622 688 b 707 631 665 688 707 674 l 707 536 b 372 701 643 632 528 701 b -42 347 115 701 -42 528 b 372 -7 -42 156 128 -7 z m 28 347 b 372 694 28 524 154 694 b 707 347 579 694 707 535 b 372 0 707 160 579 0 b 28 347 167 0 28 160 z "},"æ":{"ha":1624,"x_min":0,"x_max":0,"o":"m 1636 153 l 1665 379 l 1658 379 b 1253 0 1593 60 1425 0 b 897 326 1079 0 908 108 l 1603 326 b 1239 701 1706 546 1508 701 b 828 347 1021 701 828 590 l 828 333 l 776 333 l 776 631 b 861 688 776 674 818 688 l 861 694 l 622 694 l 622 688 b 707 631 665 688 707 674 l 707 536 b 372 701 643 632 528 701 b -42 347 115 701 -42 528 b 372 -7 -42 156 128 -7 b 707 158 528 -7 643 63 l 707 64 b 622 7 707 21 665 7 l 622 0 l 861 0 l 861 7 b 776 64 818 7 776 21 l 776 326 l 828 326 b 1253 -7 839 79 1033 -7 b 1636 153 1482 -7 1569 76 z m 28 347 b 372 694 28 524 154 694 b 707 347 579 694 707 535 b 372 0 707 160 579 0 b 28 347 167 0 28 160 z m 897 349 b 1239 694 897 563 1032 694 b 1468 333 1618 694 1603 333 l 897 333 z "},"b":{"ha":839,"x_min":0,"x_max":0,"o":"m 14 7 l 14 0 l 253 0 l 253 7 b 168 64 210 7 168 21 l 168 126 b 482 -7 233 47 347 -7 b 881 347 729 -7 881 156 b 482 701 881 539 729 701 b 168 568 347 701 233 646 l 168 908 b 253 965 168 951 210 965 l 253 972 l 14 972 l 14 965 b 99 908 57 965 99 951 l 99 64 b 14 7 99 21 57 7 z m 168 296 l 168 399 b 482 694 168 574 328 694 b 811 347 690 694 811 535 b 482 0 811 160 690 0 b 168 296 328 0 168 121 z "},"c":{"ha":754,"x_min":0,"x_max":0,"o":"m 781 153 l 796 379 l 789 379 b 411 0 746 40 583 0 b 31 354 232 0 31 147 b 411 694 31 550 204 694 b 757 315 517 694 746 706 l 764 315 b 761 581 768 396 781 503 b 411 703 731 701 456 703 b -42 354 193 703 -42 565 b 411 -8 -42 149 186 -8 b 781 153 640 -8 740 85 z "},"d":{"ha":839,"x_min":0,"x_max":0,"o":"m 825 0 l 825 7 b 740 64 782 7 740 21 l 740 908 b 825 965 740 951 782 965 l 825 972 l 586 972 l 586 965 b 671 908 629 965 671 951 l 671 568 b 357 701 606 647 492 701 b -42 347 110 701 -42 539 b 357 -7 -42 156 110 -7 b 671 126 492 -7 606 47 l 671 64 b 586 7 671 21 629 7 l 586 0 z m 28 347 b 357 694 28 535 149 694 b 671 399 511 694 671 574 l 671 296 b 357 0 671 121 511 0 b 28 347 149 0 28 160 z "},"e":{"ha":768,"x_min":0,"x_max":0,"o":"m 781 153 l 810 378 l 803 379 b 397 0 738 60 569 0 b 32 326 226 0 47 135 l 747 326 b 386 701 850 546 656 701 b -42 354 168 701 -42 565 b 397 -7 -42 149 172 -7 b 781 153 626 -7 714 76 z m 31 333 l 31 354 b 386 694 31 550 179 694 b 613 333 765 694 747 333 z "},"f":{"ha":593,"x_min":0,"x_max":0,"o":"m 14 7 l 14 0 l 254 0 l 254 7 b 168 64 211 7 168 21 l 168 476 l 549 476 l 549 483 l 168 483 l 168 658 b 375 972 168 863 244 972 b 564 601 507 972 615 892 l 569 599 l 635 722 b 375 979 635 865 557 979 b 99 658 211 979 99 851 l 99 483 l 14 483 l 14 476 l 99 476 l 99 64 b 14 7 99 21 57 7 z "},"g":{"ha":869,"x_min":0,"x_max":0,"o":"m 856 688 l 856 694 l 418 694 b -42 399 153 694 -42 586 b 349 190 -42 140 219 92 l 57 -99 b 414 -262 63 -237 157 -317 b 771 156 617 -219 771 -51 l 771 631 b 856 688 771 674 813 688 z m 28 399 b 418 688 28 521 133 688 l 701 688 l 701 543 l 393 235 b 28 399 249 90 28 196 z m 219 50 l 701 535 l 701 156 b 411 -256 701 -93 554 -225 b 219 50 151 -311 21 -149 z "},"h":{"ha":790,"x_min":0,"x_max":0,"o":"m 14 7 l 14 0 l 254 0 l 254 7 b 168 64 211 7 168 21 l 168 353 b 408 694 168 543 217 694 b 622 353 600 694 622 543 l 622 64 b 538 7 622 21 581 7 l 538 0 l 776 0 l 776 7 b 692 64 733 7 692 22 l 692 353 b 408 703 692 546 642 703 b 168 583 290 703 228 663 l 168 908 b 253 965 168 951 210 965 l 253 972 l 14 972 l 14 965 b 99 908 57 965 99 951 l 99 64 b 14 7 99 21 57 7 z "},"i":{"ha":267,"x_min":0,"x_max":0,"o":"m 133 843 b 213 910 178 843 213 871 b 133 972 213 950 176 972 b 53 910 90 972 53 950 b 133 843 53 871 89 843 z m 14 0 l 253 0 l 253 7 b 168 64 210 7 168 21 l 168 631 b 253 688 168 674 210 688 l 253 694 l 14 694 l 14 688 b 99 631 57 688 99 674 l 99 64 b 14 7 99 21 57 7 z "},"ı":{"ha":267,"x_min":0,"x_max":0,"o":"m 14 7 l 14 0 l 253 0 l 253 7 b 168 64 210 7 168 21 l 168 631 b 253 688 168 674 210 688 l 253 694 l 14 694 l 14 688 b 99 631 57 688 99 674 l 99 64 b 14 7 99 21 57 7 z "},"j":{"ha":239,"x_min":0,"x_max":0,"o":"m 71 631 l 71 196 b -344 -271 71 -89 -82 -271 b -381 83 -467 -271 -656 -186 l -386 89 l -574 -97 b -344 -278 -574 -157 -537 -278 b 140 196 3 -278 140 -72 l 140 631 b 225 688 140 674 182 688 l 225 694 l -14 694 l -14 688 b 71 631 29 688 71 674 z m 25 910 b 106 843 25 871 61 843 b 185 910 150 843 185 871 b 106 972 185 950 149 972 b 25 910 63 972 25 950 z "},"k":{"ha":722,"x_min":0,"x_max":0,"o":"m 14 7 l 14 0 l 253 0 l 253 7 b 168 64 210 7 168 21 l 168 272 b 374 678 168 439 213 644 b 524 417 565 718 664 560 l 357 246 b 708 0 351 124 513 0 l 708 7 b 415 294 540 7 382 142 l 646 532 b 379 688 646 633 568 725 b 168 525 275 667 218 608 l 168 908 b 253 965 168 951 210 965 l 253 972 l 14 972 l 14 965 b 99 908 57 965 99 951 l 99 64 b 14 7 99 21 57 7 z "},"l":{"ha":267,"x_min":0,"x_max":0,"o":"m 14 7 l 14 0 l 253 0 l 253 7 b 168 64 210 7 168 21 l 168 908 b 253 965 168 951 210 965 l 253 972 l 14 972 l 14 965 b 99 908 57 965 99 951 l 99 64 b 14 7 99 21 57 7 z "},"m":{"ha":1303,"x_min":0,"x_max":0,"o":"m 14 7 l 14 0 l 254 0 l 254 7 b 168 64 211 7 168 21 l 168 356 b 393 694 168 560 254 694 b 617 356 540 694 617 563 l 617 64 b 532 7 617 21 575 7 l 532 0 l 771 0 l 771 7 b 686 64 728 7 686 22 l 686 356 b 913 694 686 574 763 694 b 1135 356 1076 694 1135 563 l 1135 64 b 1050 7 1135 21 1093 7 l 1050 0 l 1289 0 l 1289 7 b 1204 64 1246 7 1204 22 l 1204 356 b 913 701 1204 538 1121 701 b 650 547 779 701 692 642 b 393 701 606 639 522 701 b 168 590 296 701 219 657 l 168 631 b 253 688 168 674 210 688 l 253 694 l 14 694 l 14 688 b 99 631 57 688 99 674 l 99 64 b 14 7 99 21 57 7 z "},"n":{"ha":828,"x_min":0,"x_max":0,"o":"m 14 7 l 14 0 l 254 0 l 254 7 b 168 64 211 7 168 21 l 168 353 b 424 694 168 543 276 694 b 660 353 611 694 660 571 l 660 64 b 575 7 660 21 618 7 l 575 0 l 814 0 l 814 7 b 729 64 771 7 729 22 l 729 353 b 424 703 729 560 644 703 b 168 556 303 703 213 635 l 168 631 b 253 688 168 674 210 688 l 253 694 l 14 694 l 14 688 b 99 631 57 688 99 674 l 99 64 b 14 7 99 21 57 7 z "},"o":{"ha":806,"x_min":0,"x_max":0,"o":"m 403 -7 b 847 347 649 -7 847 156 b 403 701 847 539 649 701 b -42 347 157 701 -42 539 b 403 -7 -42 156 157 -7 z m 29 347 b 403 694 29 535 196 694 b 776 347 610 694 776 535 b 403 0 776 160 610 0 b 29 347 196 0 29 160 z "},"ø":{"ha":861,"x_min":0,"x_max":0,"o":"m 458 -7 b 903 347 704 -7 903 156 b 779 592 903 440 856 528 l 903 689 l 899 694 l 774 596 b 458 701 693 661 582 701 b 14 347 213 701 14 539 b 142 100 14 253 63 165 l 14 0 l 18 -6 l 147 96 b 458 -7 228 32 338 -7 z m 85 347 b 458 694 85 535 251 694 b 742 572 572 694 674 646 l 172 125 b 85 347 118 186 85 264 z m 178 119 l 747 567 b 832 347 800 506 832 429 b 458 0 832 160 665 0 b 178 119 346 0 246 47 z "},"œ":{"ha":1586,"x_min":0,"x_max":0,"o":"m 403 -7 b 811 215 586 -7 743 88 b 1215 -7 881 82 1044 -7 b 1599 153 1444 -7 1532 76 l 1628 378 l 1621 379 b 1215 0 1556 60 1388 0 b 849 326 1044 0 864 135 l 1565 326 b 1204 701 1668 546 1474 701 b 810 493 1039 701 878 624 b 403 701 742 615 585 701 b -42 347 157 701 -42 539 b 403 -7 -42 156 157 -7 z m 29 347 b 403 694 29 535 196 694 b 776 353 610 694 776 540 b 403 0 776 165 610 0 b 29 347 196 0 29 160 z m 847 333 l 847 354 b 1204 694 847 550 997 694 b 1431 333 1583 694 1565 333 z "},"p":{"ha":839,"x_min":0,"x_max":0,"o":"m 14 694 l 14 688 b 99 631 57 688 99 674 l 99 -214 b 14 -271 99 -257 57 -271 l 14 -278 l 253 -278 l 253 -271 b 168 -214 210 -271 168 -257 l 168 126 b 482 -7 233 47 347 -7 b 881 347 729 -7 881 156 b 482 701 881 539 729 701 b 168 568 347 701 233 647 l 168 631 b 253 688 168 674 210 688 l 253 694 z m 168 296 l 168 399 b 482 694 168 574 328 694 b 811 347 690 694 811 535 b 482 0 811 160 690 0 b 168 296 328 0 168 121 z "},"q":{"ha":839,"x_min":0,"x_max":0,"o":"m 825 688 l 825 694 l 586 694 l 586 688 b 671 631 629 688 671 674 l 671 568 b 357 701 606 647 492 701 b -42 347 110 701 -42 539 b 357 -7 -42 156 110 -7 b 671 126 492 -7 606 47 l 671 -214 b 586 -271 671 -257 629 -271 l 586 -278 l 825 -278 l 825 -271 b 740 -214 782 -271 740 -257 l 740 631 b 825 688 740 674 782 688 z m 28 347 b 357 694 28 535 149 694 b 671 399 511 694 671 574 l 671 296 b 357 0 671 121 511 0 b 28 347 149 0 28 160 z "},"r":{"ha":582,"x_min":0,"x_max":0,"o":"m 14 7 l 14 0 l 253 0 l 253 7 b 168 64 210 7 168 21 l 168 272 b 365 665 168 439 208 610 b 513 403 478 706 679 664 l 517 399 l 618 503 b 371 676 651 658 528 731 b 168 511 290 649 218 589 l 168 631 b 253 688 168 674 210 688 l 253 694 l 14 694 l 14 688 b 99 631 57 688 99 674 l 99 64 b 14 7 99 21 57 7 z "},"s":{"ha":543,"x_min":0,"x_max":0,"o":"m 15 165 b 271 -7 1 43 143 -6 b 529 181 464 -8 529 101 b 272 375 529 293 396 335 b 92 543 167 410 92 443 b 271 694 92 622 146 696 b 383 463 396 693 519 621 l 389 457 l 501 557 b 271 701 501 665 383 700 b 22 543 90 704 22 618 b 269 368 22 442 147 408 b 460 181 376 333 460 299 b 271 0 460 88 407 0 b 131 261 124 0 -10 94 l 125 265 z "},"ß":{"ha":869,"x_min":0,"x_max":0,"o":"m 14 7 l 14 0 l 253 0 l 253 7 b 168 64 210 7 168 21 l 168 539 b 460 950 168 788 317 919 b 651 644 719 1006 849 844 l 457 449 l 464 442 l 481 458 b 846 296 606 583 846 471 b 563 0 846 192 776 0 b 335 383 299 0 194 279 l 331 388 b 563 -7 154 289 236 -7 b 911 296 721 -7 911 88 b 526 504 911 519 674 583 l 814 793 b 457 957 808 932 714 1011 b 99 539 254 914 99 746 l 99 64 b 14 7 99 21 57 7 z "},"t":{"ha":593,"x_min":0,"x_max":0,"o":"m 14 972 l 14 965 b 99 908 57 965 99 951 l 99 483 l 14 483 l 14 476 l 99 476 l 99 314 b 375 -7 99 121 211 -7 b 635 250 557 -7 635 107 l 569 374 l 564 371 b 375 0 615 81 507 0 b 168 314 244 0 168 110 l 168 476 l 549 476 l 549 483 l 168 483 l 168 908 b 254 965 168 951 211 965 l 254 972 z "},"u":{"ha":828,"x_min":0,"x_max":0,"o":"m 814 688 l 814 694 l 574 694 l 574 688 b 660 631 617 688 660 674 l 660 342 b 404 0 660 151 551 0 b 168 342 217 0 168 124 l 168 631 b 253 688 168 674 210 688 l 253 694 l 14 694 l 14 688 b 99 631 57 688 99 672 l 99 342 b 404 -8 99 135 183 -8 b 660 139 525 -8 615 60 l 660 64 b 575 7 660 21 618 7 l 575 0 l 814 0 l 814 7 b 729 64 771 7 729 21 l 729 631 b 814 688 729 674 771 688 z "},"v":{"ha":778,"x_min":0,"x_max":0,"o":"m 228 688 l 228 694 l 14 694 l 14 688 b 101 649 44 688 90 675 l 374 0 l 382 0 l 688 653 b 764 688 700 679 732 688 l 764 694 l 631 694 l 631 688 b 681 654 663 688 690 676 l 411 82 l 181 643 b 228 688 171 668 194 688 z "},"w":{"ha":1181,"x_min":0,"x_max":0,"o":"m 228 688 l 228 694 l 14 694 l 14 688 b 101 649 44 688 90 675 l 374 0 l 382 0 l 590 444 l 776 0 l 785 0 l 1090 653 b 1167 688 1103 679 1135 688 l 1167 694 l 1033 694 l 1033 688 b 1083 654 1065 688 1093 676 l 814 82 l 631 529 l 688 653 b 764 688 700 679 732 688 l 764 694 l 417 694 l 417 688 b 504 649 447 688 493 675 l 586 454 l 411 82 l 181 643 b 228 688 171 668 194 688 z m 583 643 b 631 688 574 668 597 688 b 681 654 663 688 690 676 l 626 539 z "},"x":{"ha":782,"x_min":0,"x_max":0,"o":"m 272 688 l 272 694 l 14 694 l 14 688 b 163 606 54 688 128 653 l 349 346 l 165 89 b 17 7 131 42 57 7 l 17 0 l 196 0 l 196 7 b 167 78 156 7 133 32 l 353 339 l 539 78 b 510 7 572 32 550 7 l 510 0 l 768 0 l 768 7 b 619 89 728 7 654 42 l 397 401 l 543 606 b 692 688 578 653 651 688 l 692 694 l 513 694 l 513 688 b 542 617 553 688 575 663 l 393 407 l 243 617 b 272 688 210 663 232 688 z "},"y":{"ha":863,"x_min":0,"x_max":0,"o":"m 694 196 l 694 539 l 242 83 b 279 -278 -29 -190 157 -278 b 694 196 542 -278 694 -89 z m 15 593 l 104 694 l 110 690 b 511 364 -64 444 256 107 l 694 549 l 694 631 b 610 688 694 674 653 688 l 610 694 l 849 694 l 849 688 b 764 631 806 688 764 674 l 764 196 b 279 -285 764 -72 626 -285 b 50 -97 86 -285 50 -157 l 238 89 l 461 314 b 15 593 242 167 -10 372 z "},"z":{"ha":772,"x_min":0,"x_max":0,"o":"m 150 694 l 69 446 l 76 444 b 347 688 163 656 219 688 l 581 688 l 147 69 b 14 7 106 8 53 7 l 14 0 l 639 0 l 719 249 l 713 250 b 442 7 626 39 569 7 l 192 7 l 625 625 b 758 688 667 686 719 688 l 758 694 z "},"⁄":{"ha":624,"x_min":0,"x_max":0,"o":"m 617 972 l 0 4 l 7 0 l 624 968 z "},".":{"ha":188,"x_min":0,"x_max":0,"o":"m 94 -67 b 174 0 139 -67 174 -39 b 94 63 174 40 138 63 b 14 0 51 63 14 40 b 94 -67 14 -39 50 -67 z "},",":{"ha":182,"x_min":0,"x_max":0,"o":"m 163 54 l -14 -143 l -8 -149 l 168 50 z "},":":{"ha":188,"x_min":0,"x_max":0,"o":"m 94 14 b 174 81 139 14 174 42 b 94 143 174 121 138 143 b 14 81 51 143 14 121 b 94 14 14 42 50 14 z m 14 403 b 94 336 14 364 50 336 b 174 403 139 336 174 364 b 94 465 174 443 138 465 b 14 403 51 465 14 443 z "},";":{"ha":253,"x_min":0,"x_max":0,"o":"m 163 54 l -14 -143 l -8 -149 l 168 50 z m 79 239 b 160 172 79 200 115 172 b 239 239 204 172 239 200 b 160 301 239 279 203 301 b 79 239 117 301 79 279 z "},"…":{"ha":604,"x_min":0,"x_max":0,"o":"m 511 -67 b 590 0 556 -67 590 -39 b 511 63 590 40 554 63 b 431 0 468 63 431 40 b 511 -67 431 -39 467 -67 z m 14 0 b 94 -67 14 -39 50 -67 b 174 0 139 -67 174 -39 b 94 63 174 40 138 63 b 14 0 51 63 14 40 z m 222 0 b 303 -67 222 -39 258 -67 b 382 0 347 -67 382 -39 b 303 63 382 40 346 63 b 222 0 260 63 222 40 z "},"!":{"ha":299,"x_min":0,"x_max":0,"o":"m 146 972 l 146 154 l 153 154 l 153 972 z m 69 0 b 150 -67 69 -39 106 -67 b 229 0 194 -67 229 -39 b 150 63 229 40 193 63 b 69 0 107 63 69 40 z "},"?":{"ha":833,"x_min":0,"x_max":0,"o":"m 278 158 l 278 154 l 517 154 l 517 158 b 432 218 474 158 432 175 l 432 308 b 482 465 432 382 450 424 l 754 831 b 403 954 757 904 708 1015 b 124 756 283 931 168 851 l 147 571 l 151 571 b 392 943 151 738 165 869 b 621 663 511 982 844 960 l 363 317 l 363 218 b 278 158 363 175 321 158 z m 317 0 b 397 -67 317 -39 353 -67 b 476 0 442 -67 476 -39 b 397 63 476 40 440 63 b 317 0 354 63 317 40 z "},"·":{"ha":188,"x_min":0,"x_max":0,"o":"m 94 310 b 174 376 139 310 174 338 b 94 439 174 417 138 439 b 14 376 51 439 14 417 b 94 310 14 338 50 310 z "},"*":{"ha":482,"x_min":0,"x_max":0,"o":"m 238 972 l 238 754 l 83 908 l 78 903 l 232 749 l 14 749 l 14 742 l 232 742 l 78 588 l 83 582 l 238 736 l 238 518 l 244 518 l 244 736 l 399 582 l 404 588 l 250 742 l 468 742 l 468 749 l 250 749 l 404 903 l 399 908 l 244 754 l 244 972 z "},"#":{"ha":956,"x_min":0,"x_max":0,"o":"m 478 972 l 358 667 l 149 667 l 149 660 l 356 660 l 222 319 l 14 319 l 14 313 l 219 313 l 99 3 l 104 0 l 226 313 l 594 313 l 474 3 l 479 0 l 601 313 l 807 313 l 807 319 l 604 319 l 738 660 l 942 660 l 942 667 l 740 667 l 860 969 l 853 972 l 733 667 l 365 667 l 485 969 z m 229 319 l 363 660 l 731 660 l 597 319 z "},"/":{"ha":339,"x_min":0,"x_max":0,"o":"m 318 972 l 14 -183 l 21 -185 l 325 971 z "},"\\":{"ha":339,"x_min":0,"x_max":0,"o":"m 21 972 l 14 971 l 318 -185 l 325 -183 z "},"-":{"ha":579,"x_min":0,"x_max":0,"o":"m 69 478 l 69 471 l 510 471 l 510 478 z "},"—":{"ha":742,"x_min":0,"x_max":0,"o":"m 14 385 l 14 378 l 728 378 l 728 385 z "},"_":{"ha":797,"x_min":0,"x_max":0,"o":"m 42 7 l 42 0 l 756 0 l 756 7 z "},"(":{"ha":257,"x_min":0,"x_max":0,"o":"m 83 446 b 285 -97 83 282 97 -97 l 285 -103 b 14 446 18 -103 14 272 b 285 994 14 619 18 994 l 285 989 b 83 446 97 989 83 610 z "},")":{"ha":257,"x_min":0,"x_max":0,"o":"m 174 446 b -28 -97 174 282 160 -97 l -28 -103 b 243 446 239 -103 243 272 b -28 994 243 619 239 994 l -28 989 b 174 446 160 989 174 610 z "},"{":{"ha":271,"x_min":0,"x_max":0,"o":"m 299 994 l 299 1000 b 14 451 63 1000 201 451 l 14 446 b 299 -103 182 446 32 -103 l 299 -97 b 43 449 119 -97 239 404 b 299 994 269 488 138 994 z "},"}":{"ha":271,"x_min":0,"x_max":0,"o":"m -28 1000 l -28 994 b 228 449 133 994 1 488 b -28 -97 32 404 151 -97 l -28 -103 b 257 446 239 -103 89 446 l 257 451 b -28 1000 69 451 208 1000 z "},"[":{"ha":90,"x_min":0,"x_max":0,"o":"m 299 1035 l 14 1035 l 14 -69 l 299 -69 l 299 -62 l 21 -62 l 21 1028 l 299 1028 z "},"]":{"ha":90,"x_min":0,"x_max":0,"o":"m 76 1035 l -208 1035 l -208 1028 l 69 1028 l 69 -62 l -208 -62 l -208 -69 l 76 -69 z "},"\"":{"ha":279,"x_min":0,"x_max":0,"o":"m 69 972 l 69 635 l 76 635 l 76 972 z m 203 635 l 210 635 l 210 972 l 203 972 z "},"'":{"ha":146,"x_min":0,"x_max":0,"o":"m 69 972 l 69 635 l 76 635 l 76 972 z "},"@":{"ha":1033,"x_min":0,"x_max":0,"o":"m 472 24 b 729 100 589 24 675 53 l 729 88 b 644 28 729 44 688 28 l 644 24 l 883 24 l 883 28 b 799 88 840 28 799 44 l 799 415 b 358 644 799 606 575 697 b 22 260 117 592 22 422 b 551 -137 22 -36 253 -137 b 1019 260 769 -137 1019 -33 b 467 761 1019 564 788 761 l 467 756 b 1013 260 794 756 1013 546 b 551 -131 1013 -29 765 -131 b 29 260 254 -131 29 -25 b 357 638 29 418 119 585 b 729 415 604 694 729 569 l 729 385 b 494 458 679 428 600 458 b 132 229 274 458 132 379 b 472 24 132 104 257 24 z m 200 229 b 494 451 200 376 307 451 b 729 250 663 451 729 344 b 472 31 729 128 654 31 b 200 229 292 31 200 107 z "},"&":{"ha":951,"x_min":0,"x_max":0,"o":"m 186 503 l 315 563 l 736 188 b 729 153 735 175 732 164 b 468 4 699 39 588 4 b 88 279 288 4 118 117 b 186 503 81 315 63 446 z m 17 279 b 468 0 44 104 281 0 b 779 133 654 0 753 42 l 782 146 l 947 0 l 951 6 l 783 154 b 656 439 797 238 746 332 l 651 435 b 736 196 724 342 742 260 l 322 565 l 650 715 b 397 949 628 846 517 913 b 26 818 126 1031 33 896 l 310 567 l 182 508 b 17 279 103 472 -3 407 z m 176 694 b 392 943 -28 879 203 1001 b 493 651 526 903 690 754 l 317 571 z "},"§":{"ha":681,"x_min":0,"x_max":0,"o":"m 69 794 l 133 794 b 488 735 133 979 675 1081 l 490 731 l 604 818 b 69 794 629 1053 69 997 z m 69 406 l 147 406 b 219 281 147 349 176 310 b 611 60 350 193 611 197 l 547 60 b 193 119 547 -125 6 -226 l 190 124 l 76 36 b 611 60 51 -199 611 -143 l 547 60 b 106 328 547 194 218 219 b 69 406 83 347 69 374 z m 69 406 b 429 592 69 524 297 625 b 69 794 293 661 69 667 l 133 794 b 610 449 133 632 610 629 b 219 281 610 318 379 253 b 106 328 174 288 133 304 b 69 406 83 349 69 375 z m 147 406 b 533 449 147 231 533 240 b 475 564 533 500 511 536 b 147 406 381 624 147 549 z m 429 592 b 483 567 450 588 468 579 l 479 561 l 475 564 b 429 592 461 575 446 583 z "},"©":{"ha":1265,"x_min":0,"x_max":0,"o":"m 1010 144 b 626 -8 969 76 856 -8 b 188 346 401 -8 188 140 b 640 686 188 557 422 686 b 990 572 685 686 960 693 b 993 307 1010 494 997 388 l 989 307 b 640 681 978 697 746 681 b 260 346 433 681 260 542 b 626 -1 260 139 447 -1 b 1021 371 799 -1 978 32 l 1025 371 z m 14 339 b 633 -147 14 71 292 -147 b 1251 339 974 -147 1251 71 b 633 825 1251 607 974 825 b 14 339 292 825 14 607 z m 22 339 b 633 818 22 603 297 818 b 1243 339 968 818 1243 603 b 633 -140 1243 75 968 -140 b 22 339 297 -140 22 75 z "},"®":{"ha":833,"x_min":0,"x_max":0,"o":"m 82 796 l 103 796 l 103 797 b 96 801 100 797 96 799 l 96 810 l 118 832 b 167 796 126 818 147 796 l 167 797 b 125 839 151 797 131 822 l 142 856 l 154 867 b 121 882 156 875 149 889 b 96 865 111 879 101 874 l 96 878 b 103 882 96 881 100 882 l 103 883 l 82 883 l 82 882 b 89 878 86 882 89 881 l 89 801 b 82 797 89 799 86 797 z m 14 836 b 118 756 14 792 61 756 b 222 836 175 756 222 792 b 118 918 222 882 175 918 b 14 836 61 918 14 882 z m 21 836 b 118 911 21 878 64 911 b 215 836 172 911 215 878 b 118 763 215 796 172 763 b 21 836 64 763 21 796 z m 96 813 l 96 846 b 121 881 96 860 100 874 b 140 857 129 883 160 883 z "},"°":{"ha":236,"x_min":0,"x_max":0,"o":"m 118 756 b 222 836 175 756 222 792 b 118 918 222 882 175 918 b 14 836 61 918 14 882 b 118 756 14 792 61 756 z m 21 836 b 118 911 21 878 64 911 b 215 836 172 911 215 878 b 118 763 215 796 172 763 b 21 836 64 763 21 796 z "},"|":{"ha":146,"x_min":0,"x_max":0,"o":"m 76 972 l 69 972 l 69 0 l 76 0 z "},"†":{"ha":621,"x_min":0,"x_max":0,"o":"m 151 526 l 69 526 l 69 518 l 217 518 b 307 364 306 514 307 490 l 307 0 l 314 0 l 314 364 b 421 519 314 499 315 517 l 551 519 l 551 526 l 482 526 b 314 682 317 528 314 525 l 314 972 l 307 972 l 307 682 b 151 526 307 529 304 526 z "},"‡":{"ha":833,"x_min":0,"x_max":0,"o":"m 151 693 l 69 693 l 69 685 l 217 685 b 307 531 306 681 307 657 l 307 506 b 151 350 307 353 304 350 l 69 350 l 69 342 l 217 342 b 307 188 306 338 307 314 l 307 0 l 314 0 l 314 188 b 421 343 314 322 315 340 l 551 343 l 551 350 l 482 350 b 314 506 317 351 314 349 l 314 531 b 421 686 314 665 315 683 l 551 686 l 551 693 l 482 693 b 314 849 317 694 314 692 l 314 972 l 307 972 l 307 849 b 151 693 307 696 304 693 z "},"¢":{"ha":838,"x_min":0,"x_max":0,"o":"m 822 153 b 453 0 783 86 672 3 l 446 0 l 446 7 l 453 7 l 453 -103 l 446 -103 l 446 0 l 439 0 b 0 354 214 0 0 149 b 446 694 0 563 229 692 l 453 694 l 453 689 l 446 689 l 446 797 l 453 797 l 453 694 b 803 581 497 694 772 701 b 806 315 822 503 810 396 l 801 315 b 453 689 790 706 558 689 l 453 7 b 833 379 621 8 792 50 l 838 379 z m 72 354 b 439 7 72 147 260 7 l 446 7 l 446 689 b 72 354 242 686 72 547 z "},"$":{"ha":728,"x_min":0,"x_max":0,"o":"m 435 1038 l 435 968 l 428 969 l 428 978 l 435 978 b 728 749 599 961 743 879 l 589 628 l 583 632 b 435 968 751 826 614 947 l 435 493 l 428 494 l 428 507 l 435 504 b 742 250 592 451 742 388 b 435 -4 742 135 636 14 l 428 -6 l 428 3 l 435 4 l 435 -67 l 428 -67 l 428 -6 b 379 -7 413 -7 396 -7 b 331 -6 363 -7 347 -6 l 324 -4 l 324 3 l 331 3 l 331 -67 l 324 -67 l 324 -4 b 15 226 154 10 0 88 l 154 347 l 160 343 b 324 3 -15 140 139 22 l 324 542 l 331 539 l 331 528 l 324 529 b 26 758 171 581 26 638 b 324 979 26 851 113 964 l 331 979 l 331 969 l 324 969 l 324 1038 l 331 1038 l 331 979 b 379 981 346 981 363 981 b 428 978 396 981 411 979 l 428 1038 z m 96 758 b 324 542 96 650 199 588 l 324 969 b 96 758 181 950 96 857 z m 331 3 b 379 0 347 1 363 0 b 428 3 396 0 413 1 l 428 494 b 376 513 411 501 393 507 l 331 528 z m 331 539 b 381 522 347 533 364 528 l 428 507 l 428 969 b 379 972 413 971 396 972 b 331 969 363 972 346 971 z m 435 4 b 672 250 592 25 672 133 b 435 493 672 385 563 446 z "},"€":{"ha":889,"x_min":0,"x_max":0,"o":"m 14 438 l 14 431 l 194 431 l 194 64 b 110 4 194 21 153 4 l 110 0 l 569 0 b 875 354 886 0 842 58 l 868 356 b 569 7 839 132 786 7 l 264 7 l 264 431 l 715 431 l 715 438 l 264 438 l 264 508 l 715 508 l 715 515 l 264 515 l 264 965 l 551 965 b 814 788 701 965 758 938 l 821 790 l 772 972 l 110 972 l 110 968 b 194 908 153 968 194 953 l 194 515 l 14 515 l 14 508 l 194 508 l 194 438 z "},"£":{"ha":853,"x_min":0,"x_max":0,"o":"m 40 0 l 531 0 b 836 354 847 0 803 58 l 829 354 b 531 7 800 131 747 7 l 194 7 l 194 403 l 715 403 l 715 410 l 194 410 l 194 481 l 715 481 l 715 488 l 194 488 l 194 553 b 485 961 194 801 342 931 b 676 658 744 1015 875 857 l 650 632 l 656 626 l 839 807 b 482 968 833 946 739 1022 b 125 553 279 925 125 760 l 125 488 l 14 488 l 14 481 l 125 481 l 125 410 l 14 410 l 14 403 l 125 403 l 125 64 b 40 4 125 21 83 4 z "},"¥":{"ha":942,"x_min":0,"x_max":0,"o":"m 269 968 l 269 972 l 14 972 l 14 968 b 161 885 53 968 128 932 l 444 488 l 128 488 l 128 481 l 444 481 l 444 410 l 128 410 l 128 403 l 444 403 l 444 64 b 360 4 444 21 403 4 l 360 0 l 599 0 l 599 4 b 514 64 556 4 514 21 l 514 403 l 829 403 l 829 410 l 514 410 l 514 481 l 829 481 l 829 488 l 514 488 l 514 511 l 781 885 b 928 968 814 932 889 968 l 928 972 l 749 972 l 749 968 b 778 894 789 968 810 940 l 510 518 l 240 894 b 269 968 207 940 229 968 z "},"+":{"ha":579,"x_min":0,"x_max":0,"o":"m 69 478 l 69 471 l 286 471 l 286 254 l 293 254 l 293 471 l 510 471 l 510 478 l 293 478 l 293 694 l 286 694 l 286 478 z "},"−":{"ha":579,"x_min":0,"x_max":0,"o":"m 69 478 l 69 471 l 510 471 l 510 478 z "},"×":{"ha":454,"x_min":0,"x_max":0,"o":"m 74 632 l 69 628 l 224 475 l 69 321 l 74 317 l 228 471 l 381 317 l 385 321 l 232 475 l 385 628 l 381 632 l 228 479 z "},"÷":{"ha":579,"x_min":0,"x_max":0,"o":"m 69 351 l 69 344 l 510 344 l 510 351 z m 214 186 b 294 119 214 147 250 119 b 374 186 339 119 374 147 b 294 249 374 226 338 249 b 214 186 251 249 214 226 z m 214 508 b 294 442 214 469 250 442 b 374 508 339 442 374 469 b 294 571 374 549 338 571 b 214 508 251 571 214 549 z "},"=":{"ha":640,"x_min":0,"x_max":0,"o":"m 69 400 l 69 393 l 571 393 l 571 400 z m 69 553 l 571 553 l 571 560 l 69 560 z "},"≠":{"ha":640,"x_min":0,"x_max":0,"o":"m 69 400 l 69 393 l 231 393 l 158 321 l 163 317 l 239 393 l 571 393 l 571 400 l 246 400 l 399 553 l 571 553 l 571 560 l 406 560 l 474 628 l 469 632 l 397 560 l 69 560 l 69 553 l 390 553 l 238 400 z "},">":{"ha":454,"x_min":0,"x_max":0,"o":"m 69 690 l 376 383 l 69 76 l 74 72 l 385 383 l 74 694 z "},"<":{"ha":454,"x_min":0,"x_max":0,"o":"m 385 690 l 381 694 l 69 383 l 381 72 l 385 76 l 78 383 z "},"≈":{"ha":833,"x_min":0,"x_max":0,"o":"m 181 374 l 185 369 b 669 400 299 493 551 257 l 665 404 b 181 374 567 283 342 557 z m 181 524 l 185 519 b 669 550 299 643 551 407 l 665 554 b 181 524 567 433 342 707 z "},"~":{"ha":833,"x_min":0,"x_max":0,"o":"m 181 401 l 185 397 b 669 428 299 521 551 285 l 665 432 b 181 401 567 311 342 585 z "},"%":{"ha":1282,"x_min":0,"x_max":0,"o":"m 942 972 b 507 935 903 913 650 890 b 338 972 457 958 400 972 b 14 719 158 972 14 858 b 338 467 14 579 158 467 b 661 719 517 467 661 579 b 531 922 661 801 610 875 b 926 949 675 888 858 907 l 325 4 l 332 0 l 949 968 z m 83 719 b 338 965 83 856 188 965 b 592 719 489 965 592 856 b 338 474 592 583 489 474 b 83 719 188 474 83 583 z m 621 253 b 944 0 621 113 765 0 b 1268 253 1124 0 1268 113 b 944 506 1268 392 1124 506 b 621 253 765 506 621 392 z m 690 253 b 944 499 690 389 794 499 b 1199 253 1096 499 1199 389 b 944 7 1199 117 1096 7 b 690 253 794 7 690 117 z "},"↑":{"ha":256,"x_min":0,"x_max":0,"o":"m 125 722 l 124 -1 l 131 -1 l 132 722 b 240 596 151 664 207 606 l 242 600 b 132 763 192 624 132 700 l 125 763 b 14 601 124 703 67 624 l 17 596 b 125 722 50 606 106 663 z "},"↗":{"ha":575,"x_min":0,"x_max":0,"o":"m 526 665 l 14 156 l 19 150 l 532 661 b 519 494 504 606 503 526 l 524 497 b 561 689 504 549 517 646 l 556 694 b 363 658 513 653 417 638 l 361 653 b 526 665 392 636 471 638 z "},"→":{"ha":792,"x_min":0,"x_max":0,"o":"m 738 383 l 14 385 l 14 378 l 738 376 b 611 268 679 357 621 301 l 615 267 b 778 376 639 317 715 376 l 778 383 b 617 494 718 385 639 442 l 611 492 b 738 383 621 458 678 403 z "},"↘":{"ha":575,"x_min":0,"x_max":0,"o":"m 14 539 l 526 29 b 361 42 471 57 392 58 l 363 36 b 556 0 417 57 513 42 l 561 6 b 524 197 517 49 504 146 l 519 200 b 532 33 503 168 504 89 l 19 544 z "},"↓":{"ha":256,"x_min":0,"x_max":0,"o":"m 124 764 l 125 40 b 17 167 106 100 50 157 l 14 161 b 125 0 67 139 124 60 l 132 0 b 242 163 132 63 192 139 l 240 167 b 132 40 207 157 151 99 l 131 764 z "},"↙":{"ha":572,"x_min":0,"x_max":0,"o":"m 49 29 l 561 539 l 556 544 l 43 33 b 56 200 71 89 72 168 l 51 197 b 14 6 71 146 58 49 l 19 0 b 213 36 63 42 158 57 l 214 42 b 49 29 183 58 104 57 z "},"←":{"ha":792,"x_min":0,"x_max":0,"o":"m 778 385 l 54 383 b 181 492 114 403 171 458 l 175 494 b 14 383 153 442 74 385 l 14 376 b 176 267 76 376 153 317 l 181 268 b 54 376 171 301 113 357 l 778 378 z "},"↖":{"ha":575,"x_min":0,"x_max":0,"o":"m 561 156 l 49 665 b 214 653 104 638 183 636 l 213 658 b 19 694 158 638 63 653 l 14 689 b 51 497 58 646 71 549 l 56 494 b 43 661 72 526 71 606 l 556 150 z "},"↔":{"ha":861,"x_min":0,"x_max":0,"o":"m 14 385 l 14 378 b 176 267 74 378 153 319 l 181 269 b 54 378 171 303 114 358 l 807 378 b 681 269 747 358 690 303 l 685 267 b 847 378 708 319 788 378 l 847 385 b 685 496 788 385 708 443 l 681 493 b 807 385 690 460 747 404 l 54 385 b 181 493 114 404 171 460 l 176 496 b 14 385 153 443 74 385 z "},"↕":{"ha":257,"x_min":0,"x_max":0,"o":"m 131 835 l 125 835 b 14 672 125 775 67 694 l 17 668 b 125 794 50 678 106 735 l 125 40 b 17 168 106 100 50 157 l 14 164 b 125 0 67 140 125 61 l 132 0 b 243 164 132 60 190 140 l 240 168 b 132 40 206 157 150 100 l 132 794 b 240 668 150 735 206 678 l 243 672 b 131 835 190 696 132 775 z "},"̈":{"ha":0,"x_min":0,"x_max":0,"o":"m 261 843 b 340 910 306 843 340 871 b 261 972 340 950 304 972 b 181 910 218 972 181 950 b 261 843 181 871 217 843 z m 376 910 b 457 843 376 871 413 843 b 536 910 501 843 536 871 b 457 972 536 950 500 972 b 376 910 414 972 376 950 z "},"̇":{"ha":0,"x_min":0,"x_max":0,"o":"m 261 843 b 340 910 306 843 340 871 b 261 972 340 950 304 972 b 181 910 218 972 181 950 b 261 843 181 871 217 843 z "},"̀":{"ha":0,"x_min":0,"x_max":0,"o":"m 583 879 l 182 972 l 181 965 l 582 872 z "},"́":{"ha":0,"x_min":0,"x_max":0,"o":"m 181 879 l 182 872 l 583 965 l 582 972 z "},"̂":{"ha":0,"x_min":0,"x_max":0,"o":"m 181 908 l 183 901 l 338 963 l 492 901 l 494 908 l 338 971 z "},"̌":{"ha":0,"x_min":0,"x_max":0,"o":"m 181 965 l 338 903 l 494 965 l 492 972 l 338 911 l 183 972 z "},"̊":{"ha":0,"x_min":0,"x_max":0,"o":"m 419 810 b 524 890 476 810 524 846 b 419 972 524 936 476 972 b 315 890 363 972 315 936 b 419 810 315 846 363 810 z m 322 890 b 419 965 322 932 365 965 b 517 890 474 965 517 932 b 419 817 517 850 474 817 b 322 890 365 817 322 850 z "},"̃":{"ha":0,"x_min":0,"x_max":0,"o":"m 181 907 l 185 903 b 669 933 299 1026 551 790 l 665 938 b 181 907 567 817 342 1090 z "},"̄":{"ha":0,"x_min":0,"x_max":0,"o":"m 181 972 l 181 965 l 501 965 l 501 972 z "},"̧":{"ha":0,"x_min":0,"x_max":0,"o":"m 365 -119 l 371 -124 b 519 -169 404 -81 500 -74 b 424 -271 531 -225 493 -271 l 424 -278 b 538 -161 494 -278 556 -235 b 390 -99 519 -81 439 -69 l 465 0 l 460 4 z m 321 -118 l 325 -118 b 424 -271 286 -210 343 -271 l 424 -278 b 321 -118 339 -278 250 -215 z "}}}
